/* XPM */
static char *bc17dd996bab47e79a20de4c6acc9adcfu769KVTSlyYRs5E[] = {
/* columns rows colors chars-per-pixel */
"100 100 41 1 ",
"  c #000000",
". c #0C0C0C",
"X c #0F0F10",
"o c #141414",
"O c #171818",
"+ c #1C1C1C",
"@ c #232323",
"# c #282727",
"$ c #2C2C2C",
"% c #333333",
"& c #373838",
"* c #3C3C3C",
"= c #444444",
"- c #4C4C4C",
"; c #504F4F",
": c #535353",
"> c #5B5B5B",
", c #636363",
"< c #6C6C6C",
"1 c #737373",
"2 c #787777",
"3 c #7B7B7B",
"4 c #838383",
"5 c #8B8B8B",
"6 c #929392",
"7 c #9B9B9B",
"8 c #A4A5A4",
"9 c #ACADAC",
"0 c #B3B3B3",
"q c #BDBDBD",
"w c #C2C2C2",
"e c #CBCBCB",
"r c #D0CFCF",
"t c #D5D5D5",
"y c #DDDDDD",
"u c #DFE0E0",
"i c #E4E5E5",
"p c #ECECEC",
"a c #EFF0F0",
"s c #F2F2F2",
"d c #FFFFFF",
/* pixels */
",,,,,,,,,,,,,,,,,,,,,,,,,,,,,,,,,,,,,,,,,,,,,,,,,,,,,,,,,,,,,,,,,,,,,,,,,,,,,,,,,,,,,,,,,,,,,,,,,,,,",
",,,,,,,,,,,,,,,,,,,,,,,,,,,,,,,,,,,,,,,,,,,,,,,,,,,,,,,,,,,,,,,,,,,,,,,,,,,,,,,,,,,,,,,,,,,,,,,,,,,,",
",,,,,,,,,,,,,,,,,,,,,,,,,,,,,,,,,,,,,,,,,,,,,,,,,,,,,,,,,,,,,,,,,,,,,,,,,,,,,,,,,,,,,,,,,,,,,,,,,,,,",
",,,,,,,,,,,,,,,,,,,,,,,,,,,,,,,,,,,,,,,,,,,,,,,,,,,,,,,,,,,,,,,,,,,,,,,,,,,,,,,,,,,,,,,,,,,,,,,,,,,,",
",,,,,,,,,,,,,,,,,,,,,,,,,,,,,,,,,,,,,,,,,,,,,,,,,,,,,,,,,,,,,,,,,,,,,,,,,,,,,,,,,,,,,,,,,,,,,,>,,,,,",
",,,,,,,,,,,,,,,,,,,,,,,,,,,,,,,,,,,,,,,,,,,,,,,,,,,,,,,,,,,,,,,,,,,,,,,,,,,,,,,,,,,,,,,,,,,,,,,,,,,,",
",,,,,,,,,,,,,,,,,,,,,,,,,,,,,,,,,,,,,,,,,,,,,,,,,,,,,,>,,,,,,,,,,,,,,,,,,,,,,,,,,,,,,,,,,,,,,,,,,,,,",
",,,,,,,,,,,,,,,,,,,,,,,,,,,,,,,,,,,,,,,,,,,,,,,,,,,,,,,,,,,,,,,,,,,,,,,,,,,,,,,,,,,,,,,,,,,,,,,,,,,,",
",,,,,,,,,,,,,,,,,,,,,,,,,,,,,,,,,,,,,,,,,,,,,,,,,,,,,,,,,,,,,,,,,,,,,,,,,,,,,,,,,,,,,,,,,,,,,,,,,,,,",
",,,,,,,,,,,,,,,,,,,,,,,,,,,,,,,,,,,,,,,,,,,,,,,,,,,,,,,,,,,,,,,,,,,,,,,,,,,,,,,,,,,,,,,,,,,,,,,,,,,,",
",,,,,,,,,,,,,,,,,,,,,,,,,,,,,,,,,,,,,,,,,,,,,,,,,,,,,,,,,,,,,,,,,,,,,,,,,,,,,,,,,,,,,,,,,,,,,,,,,,,,",
",,,,,,,,,,,,,,,,,,,,,,,,,,,,,,,,,,,,,,,,,,,,,,,,,,,,,,,,,,,,,,,,,,,,,,,,,,,,,,,,,,,,,,,,,,,,,,,,,,,,",
",,,,,,,,,,,,,,,,,,,,,,,,,,,,,,,,,,,,,,,,,,,,,,,,,,,,,,,,,,,,,,,,,,,,,,,,,,,,,,,,,,,,,,,,,,,,,,,,,,,,",
",,,,,,,,,,,,,,,,,,>,,,,,,,,,,,,,,,,,,,,,,,,,,,,,,,,,,,,,,,,,,,,,,,,,,,,,,,,,,,,,,,,,,,,,,,,,,,,,,,,,",
",,,,,,,,,,,,,,,,,,,,,,,,,,,,,,,,,,,,,,,,,,,,,,,,,,,,,,,,,,,,,,,,,,,,,,,,,,,,,,,,,,,,,,,,,,,,,,,,,,,,",
",,,,,,,,,,,,,,,,,,,,,,,,,,,,,,,,,,,,,,,,,,,,,,,,,,,,,,,,,,,,,,,,,,,,,,,,,,,,,,,,,,,,,,,,,,,,,,,,,,,,",
",,,,,,,,,,,,,,,,,,,,,,,,,,,,,,,,,,,,,,,,,,,,,,,,,,,,,,,,,,,,,,,,,,,,,,,,,,,,,,>,,,,,,,,,,,,,,,,,,,,,",
",,,,,,,,,,,,,,,,,,,,,,,,,,,,,,,,,,,,,,,,,,,,,,,,,,,,,,,,,,,,,,,,,,,,,,,,,,,,,,,,,,,,,,,,,,,,,,,,,,,,",
",,,,,,,,,,,,,,,,,,,,,,,,,,,,,,,,,,,,,,,,,,,,,,,,,,,,,,,,,,,,,,,,,,,,,,,,,,,,,,,,,,,,,,,,,,,,,,,,,,,,",
",,,,,,,,,,,,,,,,,,,,,,,,,,,,,,,,,,,,,,,,,,,,,,,,,,,,,,,,,,,,,,,,,,,,,,,,,,,,,,,,,,,,,,,,,,,,,,,,,,,,",
",,,,,,,,,,,,,,,,,,,,,,,,,,,,,,,,,,,,,,,,,,,,,,,,,,,,,,,,,,,,,,,,,,,,,,,,,,,,,,,,,,,,,,,,,,,,,,,,,,,,",
",,,,,,,,,,,,,,,,,,,,,,,,,,,,,,,,,,,,,,,,,,,,,,,,,,,,,,,,,,,,,,,,,,,,,,,,,,,,,,,,,,,,,,,,,,,,,,,,,,,,",
",,,,,,,,,,,,,,,,,,,,,,,,,,,,,,,,,,,,,,,,,,,,,,,,,,,,,,,,,,,,,,,,,,,,,,,,,,,,,,,,,,,,,,,,,,,,,,,,,,,,",
",,,,,,,,,,,,,,,,,,,,,,,,,,,,,,,,,,,,,,,,,,,,,,,,,,,,,,,,,,,,,,,,,,,,,,,,,,,,,,,,,,,,,,,,,,,,,,,,,,,,",
",,,,,,,,,,,,,,,,,,,,,,,,,,,,,,,,,,,,,,,,,,,,,,,,,,,,,,,,,,,,,,,,,,,,,,,,,,,,,,,,,,,,,,,,,,,,,>,,,,,,",
",,,,,,,,,,,,,,,,,,,,,,,,,,,,,,,,,,,,,,,,,,,,,,,,,,,,,,,,,,,,,,,,,,,,,,,,,,,,,,,,,,,,,,,,,,,,,,,,,,,,",
",,,,,,,,,,,,,,,,,,,,,,,,,,,,,,,,,,,,,,,,,,,,,,,,,,,,,,,,,,,,,,,,,,,,,,,,,,,,,,,,,,,,,,,,,,,,,,,,,,,,",
",,,,,,,,,,,,,,,,,,,,,,,,,,,,,,,,,,,,,,,,,,,,,,,,,,,,,,,,,,,,,,,,,,,,,,,,,,,,,,,,,,,,,,,,,,,,,,,,,,,,",
",,,,,,,,,,,,,,,,,,,,,,,,,,,,,,,,,,,,,,,,,,,,,,,,,,,,,,,,,,,,,,,,,,,,,,,,,,,,,,,,,,,,,,,,,,,,,,,,,,,,",
",,,,,,,,>,,,,,,,,,,,,,,,,,,,,,,,,,,,,,,,,,,,,,,,,>,,,,,,,,,,,,,,,,,,,,,,,,,,,,,,,,,,,,,,,,,,,,,,,,,,",
",,,,,,,,,,,,,,,,,,,,,,,,,,,,,,,,,,,,,,,,,,,,,,,,,,,,,,,,,,,,,,,,,,,,,,,,,,,,,,,,,,,,,,,,,,,,,,,,,,,,",
",,,,,,,,,,,,,,,,,,,,,,,,,,,,,,,,,,,,,,,,,,,,,,,,,,,,,,,,,,,,,,,,,,,,,,,,,,,,,,,,,,,,,,,,,,,,,,,,,,,,",
",,,,,,,,,,,,,,,,,,,,,,,,,,,,,,,,,,,,,,,,,,,,,,,,,,,,,,,,,,,,,,,,,,,,,,,,,,,,,,,,,,,,,,,,,,,,,,,,,,,,",
",,,,,,,,,,,,,,,,,,,,,,,,,,,,,,,,,,,,,,,,,,,,,,,,,,,,,,,,,,,,,,,,,,,,,,,,,,,,,,,,,,,,,,,,,,,,,,,,,,,,",
",,,,,,,,,,,,,,,,,,,,,,,,,,,,,,,,,,,,,,,,,,,,,,,,,,,,,,,,,,,,,,,,,,,,,,,,,,,,,,,,,,,,,,,,,,,,,,,,,,,,",
",,,,,,,,,,,,,,,,,,,,,,,,,,,,,,,,,,,,,,,,,,,,,,,,,,,,,,,,,,,,,,,,,,,,,,,,,,,,,,,,,,,,,,,,,,,,,,,,,,,,",
",,,,,,,,,,,,,,,,,,,,,,,,,,,,,,,,,,,,,,,,,,,,,,,,,,,,,,,,,,,,,,,,,,,,,,,,,,,,,,,,,,,,,,,,,,,,,,,,,,,,",
",,,,,,,,,,,,,,,,,,,,,,,,,,,,,,,,,,,,,,,,,,,,,,,,,,,,,,,,,,,,,,,,,,,,,,,,,,,,,,,,,,,,,,,,,,,,,,,,,,,,",
",,,,,,,,,,,,,,,,,,,,,,,,,,,,,,,,,,,,,,,,,,,,,,,,,,,,,,,,,,,,,,,,,,,,,,,,,,,,,,,,,,,,,,,,,,,,,,,,,,,,",
",,,,,,,,,,,,,,,,,,,,,,,,,,,,,,,,,,,,,,,,,,,,,,,,,,,,,,,,,,,,,,,,,,,,,,,,,,,,,,,,,,,,,,,,,,,,,,,,,,,,",
",,,,,,,,,,,,,,,,,,,,,,,,,,,,,,,,,,,,,,,,,,,,,,,,,,,,,,,,,,,,,,,,,,,,,,,,,,,,,,,,,,,,,,,,,,,,,,,,,,,,",
",,,,,,,,,,,,,,,,,,,,,,,,,,,,,,,,,,,,,,,,,,,,,,,,,,,,,,,,,,,,,,,,,,,,,,,,,,,,,,,,,,,,,,,,,,,,,,,,,,,,",
",,,,,,,,,,,,,,,>,,,,,,,,,,,,,,,,,,,,,,,,,,,,,,,,,,,,,,,,,,,,,,,,,,,,,,,,,,,,,,,,,,,,,,,,,,,,,,,,,,,,",
",,,,,,,,,,,,,,,,,,,,,,,,,,,,,,,,,,,,,,,,12<121,,,,,,,,,,,,,,,,>:::>>>,,,,,,,,,,,,,,,,,,,,,,,,,,,,,,,",
",,,,,,,,,,,,,,,,,,,,,,,,,,,,,,,,,,,,,,<1-%@@*;<2,,,,,,,,,:-==-,,12,,:-=->,,,,,,,,,,,,,,,,,,,,,,,,,,,",
",,,,,,,,,,,,,,,,,,,,,,,<121<,,,,,,,,,<<$      +=<2,,,,>=:<59wtasddsptq95,=-,,,,,,,,,,,,,,,,,,,,,,,,,",
",,,,,,,,,,,,,,,,,,,,,11:%$*:<2,,,,,,,1+  .o     O>2>-=<7edddddddddddddddp03--,,,,,,,,,,,,,,,,,,,,,,,",
",,,,,,,,,,,,,,,,,,,,2:.     o-2,>,,,2% O8psi0-    -14wsdddddddddddddddddddde4-:,,,,,,,,,,,,,,,,,,,,,",
",,,,,,,,,,,,,,,,,,,2- .4et0:  *2,,,<, +pdddddd0O   7ddddddddddddddddddddddddd0:-,,,,,,,,,,,,,,,,,,,,",
",,,,,,,,,,,,,,,,,,<> -dddddd9  :<,,2@ uddddddddp#  +ddddddddddddddddddddddddddy,-,,,,,,,,,,,,,,,,,,,",
",,,,,,,,,,,,,,,,,,1.Odddddddd, %2,,1 <ddddddddddi.  7ddddddddddddddddddddddddddp,-<,,,,,,,,,,,,,,,,,",
",,,,,,,,,,,,,,,,,<: 8ddddddddw +1,<- sddddddddddd<  >dddddddddddddddddddddddddddp::,,,,,,,,,,,,,,,,,",
",,,,,,,,,,,,,,,,,1% yddddddddr .>=>O=dddddddddddd7  :dddddddddddddddddddddddddddde=,,,,,,,,,>,,,,,,,",
",,,,,,,,,,,,,,,,,2$ pddddddddq%280q.4dddddddddddd6  3ddddddddddddddddddddddddddddd5=,,,,,,,,,,,,,,,,",
",,,,,,,,,,,,,,,,,1* iddddddddsddddd=8dddddddddddd=  ydddddddddddddddddddddddddddddi:>,,,,,,,,,,,,,,,",
",,,,,,,,,,,,,,,,,,< 6ddddddddddddddaddddddddddddq  -ddddddddddddddddddddddddddddddd5-,,,,,,,,,,,,,,,",
",,,,,,,,,,,,,,,,,,1=Opdddddddddddddddddddddddddu.  pddddddddddddddddddddddddddddddde-,,,,,,,,,,,,,,,",
",,,,,,,,,,,,,,,,,,>2=>yddddddddddddddddddddddd0.  wdddddddddddddddddddddddddddddddds>>,,,,,,,,,,,,,,",
",,,,,,,,,,,,,,,,,,,,<;*edddddddddddddddddtpi9-  .qdddddddddddddddddddddddddddddddddd4-,,,,,,,,,,,,,,",
">,,,,,,,,,,,,,,,,,,,,*5sddddddddddddddddd4     ,iddddddddddddddddddddddddddddddddddd8=,,,,,,,,,,,,,,",
",,,,,,,,,,,,,,,,,,,,=3dddddddddddddddddddp-&-5iddddddddddddddddddddddddddddddddddddd0=,,,,,,,,,,,,,,",
",,,,,,,,,,,,,,,,,,,-1ddddddddddddddddddddddddddddddddddddddddddddddddddddddddddddddd0=,,,,,,,,,,,,,,",
",,,,,,,,,,,,,,,,,<->sdddeqdddds0dddddddddddddddddddddddddddddddddddddddddddddddddddd0=,,,,,,,,,,,,,,",
",,,,,,,,,,,,,,,,,-:idddd. yddd< 8ddddddddddddddddddddddddddddddddddddddddddddddddddd0=,,,,,,,,,,,,,,",
",,,,,,,,,,,,,,,<--iddddd  eddd- 5dddddddddddddddddddddddddddddddddddddddddddddddddddq=,,,,,,,,,,,,,,",
",,,,,,,,,,,,,,,;-tdddddd62dddde1pdddddddddddddddddddddddddddddddddddddddddddddddddds:,<,,,,,,,,,,,,,",
",,,,,<,,,,,,,,-;tdddddddddddddddddddddddddddddddddddddddddddddddddddddddddddddddddd, #>2<,,,,,,,,,,,",
",,,,>,1<,,,,>=,idddddddddddddddddddddddddddddddddddddddddddddddddddddddddddddddddd9    $,2,,,,,,,,,,",
",,,4:O$<<,>==5ddddddddddddddddddddddddddddddddddddddddddddddddddddddddddddddddddd0      .=2<,,,,,,,,",
",<=>3  @,-:4eddddddddddddddddddddddddddddddddddddddddddddddddddddddddddddddddddd6         #<1,,,,,,,",
",2*     4eydddddddddddddddddddddddddddddddddddddddddddddddddddddddddddddddddddds   **O     O,1,,,,,,",
",1=     iddddddddddddddddddddddddddddddddddddddddddddddddddddddddddddddddddddddd= O32<-O    o,1>,,,,",
",,<o    rddddddddddddddddddddddddddddddddddddddddddddddddddddddddddddddddddddddd2 =2,,21*    O<<,,,,",
",,<,$+*@ =5eddddddddddddw,,iddddddddddddddddddddddddddde,479wtiaspuweddddddddddd7 <<,,,,3-    $2,,,,",
",,,<212<%   O=<49qwq71:@   .:128ydddddddddddeidddddddddi       ...   3ddddddddddu-,,,,,,,3&    >1,,,",
",,,,,,,,2<*o             .       +*<689096,# <dddddddddq              6dddddddddd1:,,,,,,<<.   #2,,,",
",,,,,,,,,<1<>-&$@O..o+#%:<:*#                +ddddddddd>               wddddddddd5-,,,,,,,2*   O<,,,",
",,,,,,,,,,,,<111<<<,,112<,14%                 0ddddddddO               .idddddddd7=,,,,,,,1:   .,,,,",
",,,,,,,,,,,,,,,,,<,,<,,,,,<>      #:>-==$@#%$O2ddddddd9                 -dddddddd3;,,,,,,,<,   .,<,,",
",,,,,,,,,,,,,,,,,,,,,,,,,,<O#@  %>21<12:9y4<34eddddddd*                  dddddddt-,,,,,,,,<>   o<,,,",
",,,,,,,,,,,,,,,,,,,,,,,,,<:=2..>3<,,,,:2dddpddddddddt6*=%O           $,5wddddddi,:,,,,,,,,3-   #1,,,",
",,,,,,,,,,,,,,,,,,,,,,,,,,,2=.,1,,,,,:3p0sdddddie852:-<12<>-=+,ww99qiddddddddp0>-,,,,,,,>1<.   :1,,,",
",,,,,,,,,,,,,,,,,,,,,,,,,,,,:,<,,,,,,,3:4dp964<>-=-:>,,,,,<11<6tddddddt964554,-:<,,,,,,,2,O   #2,,,,",
",,,,,,,,,,,,,,,,,,,,,,,,,,,,,<,,,,,,,,:>p9:==::>,,,,,,,,,,,,,:1idddq2>:=----->,,,,,,,<2<-.   +1<,,,,",
",,,,,,,,,,,,,,,,,,,,,,,,,,,,,,,,,,,,,,>1<->,,,,,,,,,,,,,,,,,,:0qwd7*->>,,,,,,,,,,,<21,=O    $1<,,,,,",
",,,,,,,,,,,,,,,,,,,,,,,,,,,,,,,,,,,,,,,>>,,,,,,,,,,,,,,,,,,,,,>%28=,,,,,,,,,,<<22<>=#.    +-2<>,,,,,",
",,,,,,,,,,,,,,,,,,,,,,,,,,,,,,,,,,,,,,,,,,,,,,,,,,,,,,,,,,,,,,,,,:>,,,,,<111<,>*#O     .$:11,,,,,,,,",
",,,,,,,,,,,,,,,,,,,,,,,,,,,,,,,,,,,,,,,,,,,,,,,,,,,,,,,,,,,,,,,,>,<<121<>-=#O      .+$-<12,,,,,,,,,,",
",,,,,,,,,,,,,,,,,,,,,,,,,,,,,,,,,,,,,,,,,,,,,,,,,,,,,,,,,,,,,,,121<>*%+.      X@$*:,<21,,,,,,,,,,,,,",
",,,,,,,,,,,,,,,,,,,,,,,,,,,,,,,,,,,,,,,,,,,,,,,,,,,,,,,,,,,<11,-#X     .O$*=;>,1221,,,,,,,,,,,,,,,,,",
",,,,,,,,,,,,,,,,,,,,,,,,,,,,,,,,,,,,,,,,,,,,,,,,,,,,,,,,<1<:%o   X@%->><11111<,,,,,,,,,,,,,,,,,,,,,,",
",,,,,,,,,,,,,,,,,,,,,,,,,,,,,,,,,,,,,,,,,,,,,,,,,,,,,><2>%o.o#=><<111<<,,,,,,,,,,,,,,,,,,,,,,,,,,,,,",
",,,,,,,,,,,,,,,,,,,,,,,,,,,,,,,,,,,,,,,,,,,,,,,,,,,,,2>#o@&>12<<,,,,,,,,,,,,,,,,,,,,,,,,,,,,,,,,,,,,",
",,,,,,,,,,,,,,,,,,,,,,,,,,,,,,,,,,,,,,,,,,,,,,,,,,,,<*o$:11<,,,,,,,,,,,,,,,,,,,,,,,,,,,,,,,,,,,,,,,,",
",,,,,,,,,,,,,,,,,,,,,,,,,,,,,,,,,,,,,,,,,,,,,,,,,,,<-@>2<,,,,,,,,,,,,,,,,,,,,,,,,,,,,,,,,,,,,,,,,,,,",
",,,,,,,,,,,,,,,,,,,,,,,,,,,,,,,,,,,,,,,,,,,,,,,,,,,,,<<,,,,,,,,,,,,,,,,,,,,,,,,,,,,,,,,,,,,,,,,,,,,,",
",,,,,,,,,,,,,,,,,,,,,,,,,,,,,,,,,,,,,,,,,,,,,,,,,,,,,,,,,,,,,,,,,,,,,,,,,,,,,,,,,,,,,,,,,,,,,,,,,,,,",
",,,,,,,,,,,,,,,,,,,,,,,,,,,,,,,,,,,,,,,,,,,,,,,,,,,,,,,,,,,,,,,,,,,,,,,,,,,,,,,,,,,,,,,,,,,,,,,,,,,,",
",,,,,,,,,,,,,,,,,,,,,,,,,,,,,,,,,,,,,,,,,,,,,,,,,,,,,,,,,,,,,,,,,,,,,,,,,,,,,,,,,,,,,,,,,,,,,,,,,,,,",
",,,,,,,,,,,,,,,,,,,,,,,,,,,,,,,,,,,,,,,,,,,,,,,,,,,,,,,,,,,,,,,,,,,,,,,,,,,,,,,,,,,,,,,,,,,,,,,,,,,,"
};
